<svg xmlns="http://www.w3.org/2000/svg" viewBox="0 0 512 512">
  <path d=" M467.4 213C459.6 221.1 450.8 227.9 441.2 233.4C443.4 235.3 445.5 237.3 447.6 239.4C470.8 262.6 485.1 291.4 490.4 321.5C493.1 336.6 474.7 346.1 463.8 335.3C445.6 317.2 420.3 306.2 392.5 306.8C340.2 307.9 297.5 350.5 296.4 402.9C296 430.7 307 456 325.1 474.2C335.9 485.1 326.4 503.4 311.3 500.8C281.2 495.5 252.4 481.2 229.2 458C201.4 430.2 186.4 394.4 184.2 358C140.9 336.6 108.9 295.3 100.6 245.7C48.4 232.5 10.9 185.5 10.9 130.2C10.8999999999999 64.5 64.3 11 130 11H381.7C447.3999999999999 11 500.8 64.5 500.8 130.2C500.9 161.2 488.9999999999999 190.7 467.4 213zM262.6 432.7C260.7 423.8 259.7 414.5 259.7 405C259.7 330.4 320.1 270 394.7 270C404.2 270 413.5 271 422.4 272.9C401.7 250 371.7 235.6 338.4 235.6C275.9 235.6 225.2 286.3 225.2 348.8C225.2 382 239.6 411.9 262.6 432.7000000000001zM381.7 52.1H130C86.9999999999999 52.1 51.9 87.1 51.9 130.1999999999999C51.9 170.0999999999999 81.8 203.5 121.4 207.8L138.5999999999999 209.6999999999999L139.6999999999999 227C141.8999999999999 262.7 160.5999999999999 293.7 188.0999999999999 312.7C194.5 285.8999999999999 208.1999999999999 260.3999999999999 229.1 239.5C274.8999999999999 193.6999999999999 342.3 182.6999999999999 398.5 206.3999999999999C433.8 198.6999999999999 459.6999999999999 167.5999999999999 459.6999999999999 130.1999999999999C459.8 87.0999999999999 424.8 52.0999999999999 381.7 52.0999999999999z"/>
</svg>